<svg width="20" height="19" viewBox="0 0 20 19" fill="none" xmlns="http://www.w3.org/2000/svg">
<path d="M15.3118 11.217L15.3117 11.217C14.8822 11.5807 14.6922 12.1538 14.8245 12.7017C14.8245 12.7017 14.8245 12.7017 14.8245 12.7017L16.0503 17.7784C16.1498 18.1903 15.6895 18.5523 15.2913 18.312L10.7829 15.5915C10.7829 15.5915 10.7829 15.5915 10.7829 15.5915C10.302 15.3013 9.69805 15.3013 9.21715 15.5915C9.21715 15.5915 9.21714 15.5915 9.21714 15.5915L4.70869 18.312C4.31045 18.5523 3.85021 18.1903 3.94967 17.7784L5.17545 12.7017C5.30776 12.1538 5.11795 11.5807 4.68829 11.217L4.68824 11.217L0.676056 7.82173C0.676054 7.82173 0.676053 7.82172 0.676052 7.82172C0.345218 7.54175 0.508897 6.99218 0.966769 6.95592L6.23283 6.53884C6.79284 6.49449 7.28452 6.14394 7.50289 5.62525L9.5317 0.806359C9.70368 0.397881 10.2963 0.397879 10.4683 0.806361L12.4971 5.62524L12.4971 5.62535C12.7156 6.14393 13.2072 6.49449 13.7672 6.53884L19.0332 6.95592C19.4911 6.99218 19.6547 7.54175 19.3239 7.82173L15.3118 11.217Z" fill="white" stroke="#FCCF00"/>
</svg>
